<svg xmlns="http://www.w3.org/2000/svg" xmlns:xlink="http://www.w3.org/1999/xlink" version="1.1" width="256" height="256" viewBox="0 0 256 256" xml:space="preserve">

<defs>
</defs>
<g style="stroke: none; stroke-width: 0; stroke-dasharray: none; stroke-linecap: butt; stroke-linejoin: miter; stroke-miterlimit: 10; fill: none; fill-rule: nonzero; opacity: 1;" transform="translate(1.4065934065934016 1.4065934065934016) scale(2.81 2.81)" >
	<path d="M 89.376 53.148 c -0.449 -0.184 -0.969 -0.014 -1.226 0.399 c -1.537 2.479 -3.348 4.768 -5.381 6.8 c -14.645 14.645 -38.474 14.646 -53.118 0.001 c -14.645 -14.645 -14.645 -38.474 0 -53.119 c 2.035 -2.034 4.323 -3.845 6.8 -5.38 c 0.414 -0.257 0.583 -0.775 0.4 -1.226 s -0.667 -0.706 -1.142 -0.601 C 27.224 1.889 19.487 6.127 13.335 12.28 C 4.736 20.878 0 32.312 0 44.473 s 4.736 23.594 13.335 32.192 C 21.934 85.265 33.367 90 45.528 90 c 12.161 0 23.593 -4.735 32.193 -13.335 c 6.151 -6.151 10.39 -13.889 12.256 -22.375 C 90.081 53.814 89.828 53.332 89.376 53.148 z" style="stroke: none; stroke-width: 1; stroke-dasharray: none; stroke-linecap: butt; stroke-linejoin: miter; stroke-miterlimit: 10; fill: rgb(244,210,37); fill-rule: nonzero; opacity: 1;" transform=" matrix(1 0 0 1 0 0) " stroke-linecap="round" />
	<path d="M 76.43 27.258 c -0.118 -0.362 -0.431 -0.626 -0.808 -0.681 L 64.05 24.896 L 58.875 14.41 c -0.168 -0.341 -0.516 -0.558 -0.896 -0.558 s -0.729 0.216 -0.896 0.558 l -5.176 10.486 l -11.571 1.681 c -0.377 0.055 -0.69 0.319 -0.808 0.681 c -0.118 0.362 -0.02 0.759 0.253 1.025 l 8.374 8.162 l -1.977 11.525 c -0.064 0.375 0.09 0.754 0.397 0.978 c 0.311 0.225 0.717 0.254 1.054 0.076 l 10.35 -5.441 l 10.35 5.441 c 0.146 0.077 0.307 0.115 0.466 0.115 c 0.207 0 0.413 -0.064 0.588 -0.191 c 0.308 -0.224 0.462 -0.603 0.397 -0.978 l -1.977 -11.525 l 8.374 -8.162 C 76.449 28.017 76.547 27.62 76.43 27.258 z" style="stroke: none; stroke-width: 1; stroke-dasharray: none; stroke-linecap: butt; stroke-linejoin: miter; stroke-miterlimit: 10; fill: rgb(244,210,37); fill-rule: nonzero; opacity: 1;" transform=" matrix(1 0 0 1 0 0) " stroke-linecap="round" />
</g>
</svg>